# xmcd
#
# Track frame offsets:
#	150
#	15178
#	30287
#	45980
#	70104
#	86795
#	103722
#	118972
#	133239
#	145215
#	161457
#
# Disc length: 2302 seconds
#
# Revision: 1
# Processed by: cddbd v1.5.1PL2 Copyright (c) Steve Scherf et al.
# Submitted via: audiograbber 1.83.01
#
DISCID=8908fc0b
DTITLE=Bob Hannan - King Of Fools
DYEAR=2005
DGENRE=Country
TTITLE0=You Are My Flower
TTITLE1=I Still Miss Someone
TTITLE2=Gold Watch and Chain
TTITLE3=I'll Be All Smiles Tonight
TTITLE4=King Of Fools
TTITLE5=Foggy Mountain Top
TTITLE6=Little Old Green Valley
TTITLE7=I Overlooked An Orchid
TTITLE8=Black Mountain Rag
TTITLE9=This Crazy War
TTITLE10=Walk Another Mile
EXTD=
EXTT0=
EXTT1=
EXTT2=
EXTT3=
EXTT4=
EXTT5=
EXTT6=
EXTT7=
EXTT8=
EXTT9=
EXTT10=
PLAYORDER=
